<svg width="35" height="59" viewBox="0 0 35 59" fill="white" xmlns="http://www.w3.org/2000/svg">
<path d="M34.1772 53.8751C34.2245 53.9219 34.2511 53.9856 34.2512 54.0521C34.2514 54.1186 34.225 54.1824 34.178 54.2294L30.0006 58.4068C29.9032 58.5042 29.7454 58.5044 29.6477 58.4074L0.823864 29.7924C0.776585 29.7454 0.749996 29.6816 0.749996 29.615C0.749996 29.5483 0.776585 29.4845 0.823864 29.4375L29.6477 0.822582C29.7454 0.725556 29.9032 0.725843 30.0006 0.823223L34.178 5.0006C34.225 5.04761 34.2514 5.11142 34.2512 5.17791C34.2511 5.24439 34.2245 5.30809 34.1772 5.3549L9.70981 29.615L34.1772 53.8751Z" fill="white" stroke="white" stroke-width="0.5" stroke-linejoin="round"/>
</svg>
