<svg width="20" height="15" viewBox="0 0 20 15" fill="none" xmlns="http://www.w3.org/2000/svg">
<path d="M19.8857 14.464C19.9698 14.3022 20.0083 14.1206 19.997 13.9386C19.9858 13.7566 19.9251 13.5811 19.8217 13.431L10.8217 0.431C10.7296 0.298162 10.6068 0.189607 10.4636 0.11463C10.3205 0.0396528 10.1613 0.000488281 9.99966 0.000488281C9.83806 0.000488281 9.67886 0.0396528 9.53571 0.11463C9.39255 0.189607 9.26969 0.298162 9.17766 0.431L0.177663 13.431C0.0738554 13.581 0.0130678 13.7566 0.00188176 13.9387C-0.00930423 14.1208 0.0295378 14.3025 0.114202 14.4641C0.198866 14.6257 0.326126 14.761 0.482203 14.8555C0.638279 14.95 0.817225 14.9999 0.999663 15L18.9997 15C19.1822 15 19.3613 14.9501 19.5174 14.8556C19.6736 14.7611 19.801 14.6257 19.8857 14.464Z" fill="white"/>
</svg>
