<svg width="32" height="32" viewBox="0 0 32 32" fill="none" xmlns="http://www.w3.org/2000/svg">
<path d="M31.536 8.912L23.104 0.464C22.7974 0.171626 22.3916 0.00589358 21.968 0H10.032C9.60837 0.00589358 9.20261 0.171626 8.896 0.464L0.464 8.912C0.168409 9.21002 0.00176739 9.61226 0 10.032V21.968C0.00176739 22.3877 0.168409 22.79 0.464 23.088L8.896 31.536C9.20261 31.8284 9.60837 31.9941 10.032 32H21.968C22.3916 31.9941 22.7974 31.8284 23.104 31.536L31.536 23.088C31.8316 22.79 31.9982 22.3877 32 21.968V10.032C31.9982 9.61226 31.8316 9.21002 31.536 8.912ZM28.8 21.296L19.2 25.2769L10.704 28.8L6.952 19.752L3.2 10.704L10.704 28.8L28.8 21.296Z" fill="#545454"/>
</svg>
