<svg width="28" height="28" viewBox="0 0 28 28" fill="none" xmlns="http://www.w3.org/2000/svg">
<path d="M1.92053 28L10.5765 19.3585C12.7567 21.0355 15.4951 21.82 18.2342 21.5523C20.9734 21.2846 23.5074 19.9848 25.3205 17.9176C27.1336 15.8504 28.0894 13.1711 27.9934 10.4251C27.8974 7.67912 26.7568 5.07285 24.8038 3.13684C22.8508 1.20083 20.2322 0.0806021 17.481 0.00418274C14.7298 -0.0722366 12.0529 0.900901 9.99504 2.7255C7.93723 4.55011 6.65325 7.08902 6.40447 9.82543C6.15568 12.5618 6.9608 15.2901 8.65593 17.4547L0 26.0962L1.92053 28ZM17.1901 2.73723C18.7951 2.73723 20.3641 3.21237 21.6986 4.10256C23.033 4.99275 24.0732 6.25801 24.6874 7.73834C25.3016 9.21867 25.4623 10.8476 25.1491 12.4191C24.836 13.9906 24.0632 15.4341 22.9283 16.5671C21.7934 17.7001 20.3474 18.4717 18.7733 18.7843C17.1991 19.0969 15.5675 18.9365 14.0847 18.3233C12.6019 17.7101 11.3345 16.6717 10.4428 15.3395C9.55113 14.0072 9.0752 12.4409 9.0752 10.8386C9.0752 8.68998 9.93016 6.62937 11.452 5.11007C12.9739 3.59077 15.0379 2.73723 17.1901 2.73723Z" fill="#545454"/>
</svg>
