<svg width="30" height="30" viewBox="0 0 30 30" fill="none" xmlns="http://www.w3.org/2000/svg">
<path d="M15 0C12.0333 0 9.13319 0.879734 6.66645 2.52795C4.19972 4.17618 2.27713 6.51885 1.14181 9.25974C0.00649926 12.0006 -0.290551 15.0166 0.288227 17.9263C0.867006 20.8361 2.29562 23.5088 4.3934 25.6066C6.49119 27.7044 9.16394 29.133 12.0737 29.7118C14.9834 30.2906 17.9994 29.9935 20.7403 28.8582C23.4811 27.7229 25.8238 25.8003 27.472 23.3335C29.1203 20.8668 30 17.9667 30 15C30 13.0302 29.612 11.0796 28.8582 9.25974C28.1044 7.43986 26.9995 5.78627 25.6066 4.3934C24.2137 3.00052 22.5601 1.89563 20.7403 1.14181C18.9204 0.387986 16.9698 0 15 0ZM19.7871 12.6589C17.4137 12.6589 18.0105 15.477 16.0371 14.1584C14.0637 12.8399 13.9454 13.3512 13.0371 11.1584C12.1289 8.96573 2.76756 14.9867 3.23058 12.6589C3.69361 10.3311 17.0718 26.6559 18.75 24.9776C20.4282 23.2994 22.6499 16.213 24.9776 15.75C27.3054 15.287 7.84439 17.5535 10.0371 18.4618C12.2298 19.37 9.18142 5.52661 10.5 7.5C12.75 3.75036 3.23058 10.2855 3.23058 12.6589C3.23058 15.8415 19.7875 19.408 17.5371 21.6584C15.2867 23.9089 22.9697 12.6589 19.7871 12.6589Z" fill="#545454"/>
</svg>
