<svg width="31" height="28" viewBox="0 0 31 28" fill="none" xmlns="http://www.w3.org/2000/svg">
<path d="M30.7924 25.6119L16.848 0.807107C16.7128 0.562088 16.5169 0.358287 16.2801 0.216497C16.0432 0.074706 15.7741 0 15.5 0C15.2259 0 14.9568 0.074706 14.7199 0.216497C14.4831 0.358287 14.2872 0.562088 14.152 0.807107L0.207578 25.6119C0.0715914 25.8539 0 26.1284 0 26.4079C0 26.6874 0.0715914 26.9619 0.207578 27.2039C0.344086 27.4469 0.540646 27.6485 0.777358 27.7883C1.01407 27.9281 1.28253 28.0011 1.55554 28H29.4445C29.7175 28.0011 29.9859 27.9281 30.2226 27.7883C30.4594 27.6485 30.6559 27.4469 30.7924 27.2039C30.9284 26.9619 31 26.6874 31 26.4079C31 26.1284 30.9284 25.8539 30.7924 25.6119ZM4.23598 24.8158H16.2801L22.4661 25.6119L26.764 24.8158H4.23598Z" fill="#545454"/>
</svg>
