<svg width="30" height="28" viewBox="0 0 30 28" fill="none" xmlns="http://www.w3.org/2000/svg">
<path d="M29.3246 9.8575L15.8524 0.28199C15.5961 0.0987546 15.2868 0 14.9692 0C14.6517 0 14.3424 0.0987546 14.0861 0.28199L0.613871 9.8575C0.358396 10.0401 0.168627 10.2971 0.071809 10.5917C-0.0250092 10.8863 -0.023898 11.2034 0.0749831 11.4973L5.22435 26.988C5.32586 27.2938 5.52743 27.5584 5.79797 27.741C6.06851 27.9235 6.39297 28.014 6.72126 27.9982H23.2921C23.6204 28.014 23.9448 27.9235 24.2154 27.741C24.4859 27.5584 24.6875 27.2938 24.789 26.988L29.9383 11.4973C30.0297 11.1958 30.0193 10.8735 29.9088 10.5781C29.7982 10.2828 29.5934 10.0301 29.3246 9.8575Z" fill="#545454"/>
</svg>
