<svg width="38" height="36" viewBox="0 0 38 36" fill="none" xmlns="http://www.w3.org/2000/svg">
<path d="M37.9363 13.6178C37.8164 13.2735 37.5985 12.971 37.3088 12.7472C37.0192 12.5233 36.6703 12.3876 36.3045 12.3565L25.5082 10.7941L20.6698 1.0619C20.5144 0.743637 20.2718 0.475226 19.9698 0.287418C19.6678 0.0996092 19.3185 0 18.9621 0C18.6056 0 18.2564 0.0996092 17.9544 0.287418C17.6524 0.475226 17.4098 0.743637 17.2544 1.0619L12.416 10.7753L1.61969 12.3565C1.26852 12.4061 0.938375 12.5522 0.666715 12.7785C0.395054 13.0048 0.192758 13.302 0.0827839 13.6366C-0.0178836 13.9635 -0.0269173 14.3115 0.0566522 14.6431C0.140222 14.9748 0.31324 15.2776 0.557138 15.519L8.39347 23.0488L6.49606 33.7411C6.42832 34.094 6.46379 34.4588 6.59827 34.7923C6.73276 35.1259 6.96065 35.4143 7.25502 35.6235C7.54195 35.827 7.88036 35.9471 8.23228 35.9704C8.5842 35.9937 8.9357 35.9192 9.24731 35.7553L18.9621 30.7292L28.6389 35.7741C28.9052 35.9231 29.206 36.001 29.5117 36C29.9137 36.0014 30.3056 35.8762 30.6312 35.6423C30.9256 35.4331 31.1535 35.1447 31.288 34.8111C31.4224 34.4776 31.4579 34.1128 31.3902 33.7599L29.4928 23.0676L37.3291 15.5379C37.603 15.3076 37.8055 15.005 37.913 14.6651C38.0205 14.3252 38.0285 13.962 37.9363 13.6178ZM26.2671 21.1475C26.0446 21.3611 25.8781 21.6254 25.7822 21.9174C25.6863 22.2094 25.6639 22.5203 25.7169 22.8229L19.0335 22.302L28.5206 31.7142C25.7079 28.9533 29.4693 34.5379 29.4693 34.5379C29.1583 34.5379 25.949 20.2746 25.6744 20.4196L11.0309 30.7103L12.397 22.8229C12.45 22.5203 11.1268 31.0024 11.0309 30.7103C10.935 30.4183 18.3073 24.398 18.0848 24.1845L34.2128 15.7135L14.1426 14.3519C14.45 14.3095 19.7308 18.7177 19.9822 18.5372C20.2336 18.3567 15.448 13.593 15.5847 13.3166L18.0848 17.5959L22.5292 13.3354C22.6659 13.6118 12.1411 21.1803 12.3925 21.3608C12.6439 21.5413 24.0629 15.4766 24.3703 15.519L11.0309 30.7103L26.2671 21.1475Z" fill="#545454"/>
</svg>
