<svg width="28" height="28" viewBox="0 0 28 28" fill="none" xmlns="http://www.w3.org/2000/svg">
<path d="M21 0H7C5.14348 0 3.36301 0.737498 2.05025 2.05025C0.737498 3.36301 0 5.14348 0 7V21C0 22.8565 0.737498 24.637 2.05025 25.9497C3.36301 27.2625 5.14348 28 7 28H21C22.8565 28 24.637 27.2625 25.9497 25.9497C27.2625 24.637 28 22.8565 28 21V7C28 5.14348 27.2625 3.36301 25.9497 2.05025C24.637 0.737498 22.8565 0 21 0ZM23.5 26.5C23.5 27.6139 24.7575 23.1822 23.9698 23.9698C23.1822 24.7575 22.1139 25.2 21 25.2H7C5.88609 25.2 17.7877 6.28765 17 5.5C16.2123 4.71235 2.8 22.1139 2.8 21V7C2.8 5.88609 2.01235 24.7575 2.8 23.9698C3.58765 23.1822 24.0861 25.2 25.2 25.2L21 2.8C22.1139 2.8 16.2123 4.71235 17 5.5C17.7877 6.28765 4.5 25.3861 4.5 26.5H23.5Z" fill="#545454"/>
</svg>
